<svg
      xmlns="http://www.w3.org/2000/svg"
      version="1.1"
      width="125px"
      height="91px"
      style="shape-rendering:geometricPrecision; text-rendering:geometricPrecision; image-rendering:optimizeQuality; fill-rule:evenodd; clip-rule:evenodd"
      xmlnsXlink="http://www.w3.org/1999/xlink"
    >
      <g>
        <path
          style="opacity:0.952"
          fill="orange"
          d="M 56.5,20.5 C 59.8333,20.5 63.1667,20.5 66.5,20.5C 66.3379,22.5273 66.5045,24.5273 67,26.5C 67.6667,27.8333 68.3333,27.8333 69,26.5C 69.4828,25.552 69.6495,24.552 69.5,23.5C 72.5184,23.3354 75.5184,23.502 78.5,24C 77.3548,27.2904 75.6881,30.2904 73.5,33C 65.5,33.6667 57.5,33.6667 49.5,33C 47.8333,30 46.1667,27 44.5,24C 49.1359,22.6654 52.8025,23.832 55.5,27.5C 56.4742,25.2573 56.8076,22.924 56.5,20.5 Z"
        />
      </g>
      <g>
        <path
          style="opacity:1"
          fill="orange"
          d="M 77.5,58.5 C 67.1107,59.141 57.1107,58.4743 47.5,56.5C 48.3194,49.4028 49.6528,42.4028 51.5,35.5C 58.5,34.1667 65.5,34.1667 72.5,35.5C 73.1667,37.5 73.8333,39.5 74.5,41.5C 68.8722,42.4954 63.2055,42.8288 57.5,42.5C 56.8413,45.4552 56.5079,48.4552 56.5,51.5C 62.8682,51.1703 69.2015,51.5037 75.5,52.5C 76.1717,54.5295 76.8384,56.5295 77.5,58.5 Z"
        />
      </g>
      
      <g>
        <path
          style="opacity:0.996"
          fill="orange"
          d="M 44.5,60.5 C 56.1667,60.5 67.8333,60.5 79.5,60.5C 80.1641,63.1368 80.8307,65.8035 81.5,68.5C 78.8929,69.3184 76.2263,69.8184 73.5,70C 74.3802,71.3561 74.7135,72.8561 74.5,74.5C 66.16,74.6664 57.8267,74.4997 49.5,74C 48.2889,72.8869 48.2889,71.7202 49.5,70.5C 47.2573,69.5258 44.924,69.1924 42.5,69.5C 42.8583,66.3112 43.525,63.3112 44.5,60.5 Z"
        />
      </g>
    </svg>