<svg width="40" height="55" viewBox="0 0 40 55" fill="none" xmlns="http://www.w3.org/2000/svg">
<path opacity="0.952" fill-rule="evenodd" clip-rule="evenodd" d="M14.5 0.5C17.8333 0.5 21.1667 0.5 24.5 0.5C24.3379 2.5273 24.5045 4.5273 25 6.5C25.6667 7.8333 26.3333 7.8333 27 6.5C27.4828 5.552 27.6495 4.552 27.5 3.5C30.5184 3.3354 33.5184 3.502 36.5 4C35.3548 7.2904 33.6881 10.2904 31.5 13C23.5 13.6667 15.5 13.6667 7.5 13C5.8333 10 4.1667 7 2.5 4C7.1359 2.6654 10.8025 3.832 13.5 7.5C14.4742 5.2573 14.8076 2.924 14.5 0.5Z" fill="green"/>
<path fill-rule="evenodd" clip-rule="evenodd" d="M35.5 38.5C25.1107 39.141 15.1107 38.4743 5.5 36.5C6.3194 29.4028 7.6528 22.4028 9.5 15.5C16.5 14.1667 23.5 14.1667 30.5 15.5C31.1667 17.5 31.8333 19.5 32.5 21.5C26.8722 22.4954 21.2055 22.8288 15.5 22.5C14.8413 25.4552 14.5079 28.4552 14.5 31.5C20.8682 31.1703 27.2015 31.5037 33.5 32.5C34.1717 34.5295 34.8384 36.5295 35.5 38.5Z" fill="green"/>
<path opacity="0.996" fill-rule="evenodd" clip-rule="evenodd" d="M2.5 40.5C14.1667 40.5 25.8333 40.5 37.5 40.5C38.1641 43.1368 38.8307 45.8035 39.5 48.5C36.8929 49.3184 34.2263 49.8184 31.5 50C32.3802 51.3561 32.7135 52.8561 32.5 54.5C24.16 54.6664 15.8267 54.4997 7.5 54C6.2889 52.8869 6.2889 51.7202 7.5 50.5C5.2573 49.5258 2.924 49.1924 0.5 49.5C0.8583 46.3112 1.525 43.3112 2.5 40.5Z" fill="green"/>
</svg>
